# xmcd
#
# Track frame offsets:
#	180
#	11793
#	22411
#	32695
#	45906
#	56031
#	63821
#	76331
#	86252
#	97418
#	110706
#	122843
#	130939
#	142354
#	153686
#	163214
#	172214
#	182992
#	191315
#	201830
#	211800
#	220207
#
# Disc length: 3103 seconds
#
# Revision: 2
# Processed by: cddbd v1.5.2PL0 Copyright (c) Steve Scherf et al.
# Submitted via: EasyCDDAExtractor 11.9.9.666
#
DISCID=4f0c1d16
DTITLE=Jerry Lee Lewis - A Taste Of Country - Ole Tyme Country Music
DYEAR=1999
DGENRE=Sun Records
TTITLE0=I Can't Seem To Say Goodbye
TTITLE1=I Love You So Much It Hurts
TTITLE2=I'm Throwing Rice
TTITLE3=Goodnight Irene
TTITLE4=Your Cheatin' Heart
TTITLE5=Am I To Be The One
TTITLE6=Crazy Arms
TTITLE7=Night Train To Memphis
TTITLE8=As Long As I Live
TTITLE9=You Win Again
TTITLE10=It Hurts Me So
TTITLE11=Waiting For A Train
TTITLE12=Carry Me To Old VIrginia
TTITLE13=John Henry
TTITLE14=Old Black Joe
TTITLE15=My Blue Heaven
TTITLE16=You're The Only Star
TTITLE17=The Crawdad Song
TTITLE18=Hand Me Down My Walking Cane
TTITLE19=You Are My Sunshine
TTITLE20=I'll Keep On Loving You
TTITLE21=Deep Elem Blues
EXTD=
EXTT0=
EXTT1=
EXTT2=
EXTT3=
EXTT4=
EXTT5=
EXTT6=
EXTT7=
EXTT8=
EXTT9=
EXTT10=
EXTT11=
EXTT12=
EXTT13=
EXTT14=
EXTT15=
EXTT16=
EXTT17=
EXTT18=
EXTT19=
EXTT20=
EXTT21=
PLAYORDER=
